<svg xmlns="http://www.w3.org/2000/svg" width="480" height="600" viewBox="0 0 480 600">
  <defs>
    <linearGradient id="bg" x1="0%" y1="0%" x2="100%" y2="100%">
      <stop offset="0%" stop-color="#0f1419"/>
      <stop offset="100%" stop-color="#1a2030"/>
    </linearGradient>
    <linearGradient id="wave" x1="0%" y1="0%" x2="0%" y2="100%">
      <stop offset="0%" stop-color="#7b6cf6"/>
      <stop offset="100%" stop-color="#7b6cf6" stop-opacity=".3"/>
    </linearGradient>
  </defs>
  <rect width="480" height="600" fill="url(#bg)"/>
  <circle cx="240" cy="200" r="80" fill="none" stroke="#7b6cf6" stroke-width="2" opacity=".3"/>
  <circle cx="240" cy="200" r="56" fill="none" stroke="#7b6cf6" stroke-width="2" opacity=".5"/>
  <circle cx="240" cy="200" r="32" fill="#7b6cf6" opacity=".2"/>
  <rect x="100" y="320" width="16" height="80" rx="4" fill="url(#wave)" opacity=".9"/>
  <rect x="128" y="300" width="16" height="100" rx="4" fill="url(#wave)" opacity=".85"/>
  <rect x="156" y="280" width="16" height="120" rx="4" fill="url(#wave)"/>
  <rect x="184" y="290" width="16" height="110" rx="4" fill="url(#wave)" opacity=".95"/>
  <rect x="212" y="260" width="16" height="140" rx="4" fill="url(#wave)"/>
  <rect x="240" y="270" width="16" height="130" rx="4" fill="url(#wave)" opacity=".9"/>
  <rect x="268" y="285" width="16" height="115" rx="4" fill="url(#wave)" opacity=".85"/>
  <rect x="296" y="305" width="16" height="95" rx="4" fill="url(#wave)" opacity=".8"/>
  <rect x="324" y="325" width="16" height="75" rx="4" fill="url(#wave)" opacity=".75"/>
  <rect x="352" y="340" width="16" height="60" rx="4" fill="url(#wave)" opacity=".7"/>
  <rect x="88" y="420" width="88" height="28" rx="14" fill="#1b1c23" stroke="#2a2c36"/>
  <text x="132" y="439" text-anchor="middle" font-family="PingFang SC,sans-serif" font-size="11" fill="#8a8d9a">ºiór</text>
  <rect x="196" y="420" width="88" height="28" rx="14" fill="#1b1c23" stroke="#2a2c36"/>
  <text x="240" y="439" text-anchor="middle" font-family="PingFang SC,sans-serif" font-size="11" fill="#8a8d9a">¯ƒð</text>
  <rect x="304" y="420" width="88" height="28" rx="14" fill="#1b1c23" stroke="#2a2c36"/>
  <text x="348" y="439" text-anchor="middle" font-family="PingFang SC,sans-serif" font-size="11" fill="#8a8d9a">s.óH</text>
  <text x="240" y="520" text-anchor="middle" font-family="PingFang SC,sans-serif" font-size="28" font-weight="700" fill="#e8e9ef">óróHÐÖ</text>
  <text x="240" y="558" text-anchor="middle" font-family="PingFang SC,sans-serif" font-size="14" fill="#8a8d9a">ð¹ · ¯ƒ · Åê‚¹</text>
</svg>
