<svg xmlns="http://www.w3.org/2000/svg" width="480" height="600" viewBox="0 0 480 600">
  <defs>
    <linearGradient id="bg" x1="0%" y1="0%" x2="100%" y2="100%">
      <stop offset="0%" stop-color="#12141f"/>
      <stop offset="100%" stop-color="#1e1830"/>
    </linearGradient>
  </defs>
  <rect width="480" height="600" fill="url(#bg)"/>
  <circle cx="420" cy="100" r="100" fill="#5b4db8" opacity=".15"/>
  <rect x="56" y="88" width="280" height="168" rx="10" fill="#0a0b0e" stroke="#2a2c36" stroke-width="2"/>
  <polygon points="96,172 96,132 128,152" fill="#e8e9ef"/>
  <rect x="140" y="228" width="200" height="4" rx="2" fill="#3a3a3c"/>
  <rect x="140" y="228" width="72" height="4" rx="2" fill="#7b6cf6"/>
  <rect x="72" y="280" width="336" height="200" rx="12" fill="#16171d" stroke="#2a2c36"/>
  <rect x="92" y="300" width="64" height="22" rx="6" fill="#5b4db8"/>
  <text x="124" y="316" text-anchor="middle" font-family="PingFang SC,sans-serif" font-size="11" fill="#fff" font-weight="700">:o 1</text>
  <text x="170" y="316" font-family="PingFang SC,sans-serif" font-size="12" fill="#c2c4cf"> å “0</text>
  <text x="92" y="346" font-family="PingFang SC,sans-serif" font-size="11" fill="#8a8d9a">[00:00] °û­¥đ-...</text>
  <text x="92" y="368" font-family="PingFang SC,sans-serif" font-size="11" fill="#5b9cf5">Ë[00:18] úp₫Ï...</text>
  <line x1="92" y1="392" x2="388" y2="392" stroke="#2a2c36" stroke-dasharray="4 4"/>
  <rect x="92" y="408" width="64" height="22" rx="6" fill="#5b4db8"/>
  <text x="124" y="424" text-anchor="middle" font-family="PingFang SC,sans-serif" font-size="11" fill="#fff" font-weight="700">:o 2</text>
  <text x="240" y="520" text-anchor="middle" font-family="PingFang SC,sans-serif" font-size="28" font-weight="700" fill="#e8e9ef">g,Æă</text>
  <text x="240" y="558" text-anchor="middle" font-family="PingFang SC,sans-serif" font-size="14" fill="#8a8d9a">ÆÆ‘ · :oöôt,</text>
</svg>
