<svg xmlns="http://www.w3.org/2000/svg" width="480" height="600" viewBox="0 0 480 600">
  <defs>
    <linearGradient id="bg" x1="0%" y1="0%" x2="100%" y2="100%">
      <stop offset="0%" stop-color="#1a1528"/>
      <stop offset="55%" stop-color="#2a1f3d"/>
      <stop offset="100%" stop-color="#0f1218"/>
    </linearGradient>
    <linearGradient id="gold" x1="0%" y1="0%" x2="100%" y2="0%">
      <stop offset="0%" stop-color="#f5b942"/>
      <stop offset="100%" stop-color="#e8a030"/>
    </linearGradient>
    <filter id="glow"><feGaussianBlur stdDeviation="8" result="b"/><feMerge><feMergeNode in="b"/><feMergeNode in="SourceGraphic"/></feMerge></filter>
  </defs>
  <rect width="480" height="600" fill="url(#bg)"/>
  <circle cx="400" cy="80" r="120" fill="#7b6cf6" opacity=".12"/>
  <circle cx="60" cy="520" r="90" fill="#f5b942" opacity=".08"/>
  <rect x="88" y="120" width="220" height="280" rx="12" fill="#12141c" stroke="#3d3658" stroke-width="2"/>
  <rect x="108" y="148" width="140" height="8" rx="4" fill="#3d3658"/>
  <rect x="108" y="172" width="180" height="6" rx="3" fill="#2a2c36"/>
  <rect x="108" y="192" width="160" height="6" rx="3" fill="#2a2c36"/>
  <rect x="108" y="212" width="175" height="6" rx="3" fill="#2a2c36"/>
  <rect x="108" y="232" width="130" height="6" rx="3" fill="#2a2c36"/>
  <rect x="108" y="268" width="180" height="6" rx="3" fill="#2a2c36"/>
  <rect x="108" y="288" width="150" height="6" rx="3" fill="#2a2c36"/>
  <text x="198" y="360" text-anchor="middle" font-family="PingFang SC,sans-serif" font-size="56" font-weight="900" fill="url(#gold)" filter="url(#glow)">A+</text>
  <rect x="300" y="200" width="92" height="120" rx="10" fill="#1b1c23" stroke="#f5b942" stroke-width="2" opacity=".95"/>
  <text x="346" y="248" text-anchor="middle" font-family="PingFang SC,sans-serif" font-size="14" fill="#f5d782">(¿</text>
  <text x="346" y="278" text-anchor="middle" font-family="PingFang SC,sans-serif" font-size="22" font-weight="800" fill="#f5b942">ƒß</text>
  <text x="240" y="480" text-anchor="middle" font-family="PingFang SC,sans-serif" font-size="28" font-weight="700" fill="#e8e9ef">g,ƒ0</text>
  <text x="240" y="518" text-anchor="middle" font-family="PingFang SC,sans-serif" font-size="14" fill="#8a8d9a">AI (¿ ∑ !Wƒß•J</text>
</svg>
